<?xml version="1.0" encoding="UTF-8"?>
<svg width="263px" height="47px" viewBox="0 0 263 47" version="1.1" xmlns="http://www.w3.org/2000/svg" xmlns:xlink="http://www.w3.org/1999/xlink">
    <title>Logo/option2/colour Copy 4</title>
    <g id="design-system" stroke="none" stroke-width="1" fill="none" fill-rule="evenodd">
        <g id="Desktop-HD-Copy-14" transform="translate(-427.000000, -4938.000000)" fill="#FFFFFF">
            <g id="Group-5" transform="translate(402.000000, 4896.000000)">
                <g id="Logo/option2/colour-Copy-4" transform="translate(25.000000, 42.000000)">
                    <g id="Group" transform="translate(61.000000, 8.000000)">
                        <path d="M28.7364017,23.6171307 L35.072309,23.6171307 C35.072309,24.6931798 35.3748664,25.4643342 35.9808287,25.9339911 C36.5859434,26.4019493 37.3631006,26.6363531 38.3123002,26.6363531 C39.0970849,26.6363531 39.7394896,26.4885768 40.2420569,26.1921749 C40.7437767,25.8957731 40.9954841,25.4091305 40.9954841,24.7339457 C40.9954841,24.3339306 40.8886991,24.0137486 40.6751292,23.7725505 C40.4624068,23.5313525 40.1352719,23.303743 39.6954196,23.0888729 C39.2547198,22.8748521 38.6928275,22.6625298 38.0097428,22.4493583 C37.3266581,22.2361867 36.4986509,21.9780029 35.5265688,21.6731081 C34.6866967,21.4251157 33.8858095,21.1533432 33.1222123,20.8569414 C32.3586152,20.5596902 31.6873954,20.1978931 31.1102482,19.7707007 C30.5322534,19.3435084 30.0746036,18.8050591 29.7381463,18.1579009 C29.4008414,17.5098934 29.232189,16.6894802 29.232189,15.6966614 C29.232189,13.5734388 30.0440936,12.0056513 31.6670555,10.9916003 C33.2908648,9.97839847 35.4782614,9.47222222 38.2300927,9.47222222 C39.6886396,9.47222222 40.9776866,9.64717576 42.0997761,9.99878141 C43.2210181,10.3503871 44.1388603,10.8404268 44.8549975,11.4672021 C45.5694397,12.0948267 46.1092969,12.8286124 46.4745693,13.6702578 C46.8381466,14.5110539 47.0212066,15.4138481 47.0212066,16.3794897 L40.6446192,16.3794897 C40.6446192,15.5378443 40.4276593,14.8830425 39.9937395,14.414235 C39.5606672,13.9454274 38.8894474,13.7110237 37.9817753,13.7110237 C37.3351331,13.7110237 36.7706983,13.8596492 36.290166,14.1543525 C35.8087862,14.4499051 35.5680963,14.9076719 35.5680963,15.5259543 C35.5680963,15.8979429 35.6808138,16.2036869 35.9079437,16.4431864 C36.1359211,16.6835352 36.469836,16.9009532 36.9113833,17.0937418 C37.3529306,17.2856811 37.8961779,17.4844147 38.5436676,17.6899427 C39.1920048,17.8954706 39.933567,18.1315729 40.7700492,18.3974004 C41.6777213,18.6453928 42.5235259,18.9231103 43.3074631,19.2263065 C44.0914003,19.5295027 44.7821125,19.8997927 45.3804472,20.3337793 C45.9796295,20.7686153 46.4533818,21.3138589 46.8042467,21.96951 C47.1551115,22.6260104 47.3305439,23.4438757 47.3305439,24.4239552 C47.3305439,25.6367399 47.089854,26.6609825 46.6084742,27.4949843 C46.1270944,28.3289861 45.4626547,29.0084173 44.6168501,29.5315793 C43.7710454,30.0564399 42.7904883,30.4309764 41.6768738,30.6594351 C40.5615643,30.8870446 39.3716747,31 38.1063578,31 C35.202824,31 32.9162699,30.362184 31.2441531,29.0874012 C29.5720363,27.8117691 28.7364017,25.9883456 28.7364017,23.6171307" id="Fill-2"></path>
                        <path d="M49.8661088,23.6171307 L56.2014574,23.6171307 C56.2014574,24.6931798 56.5040286,25.4643342 57.1100184,25.9339911 C57.7151608,26.4019493 58.4923534,26.6363531 59.4415962,26.6363531 C60.2264167,26.6363531 60.8680032,26.4885768 61.3697458,26.1921749 C61.872336,25.8957731 62.1249024,25.4091305 62.1249024,24.7339457 C62.1249024,24.3339306 62.0172651,24.0137486 61.8036854,23.7725505 C61.5901058,23.5313525 61.2646511,23.303743 60.8247787,23.0888729 C60.3840588,22.8748521 59.8221409,22.6625298 59.1390251,22.4493583 C58.4559092,22.2361867 57.6278643,21.9780029 56.6557379,21.6731081 C55.816675,21.4251157 55.0132087,21.1533432 54.2504243,20.8569414 C53.4859448,20.5596902 52.8163895,20.1978931 52.239216,19.7707007 C51.6611949,19.3435084 51.2026766,18.8050591 50.8653564,18.1579009 C50.5280362,17.5098934 50.3610711,16.6894802 50.3610711,15.6966614 C50.3610711,13.5734388 51.1730128,12.0056513 52.7960486,10.9916003 C54.4199319,9.97839847 56.6074282,9.47222222 59.359385,9.47222222 C60.8179984,9.47222222 62.1062566,9.64717576 63.2275497,9.99878141 C64.3488429,10.3503871 65.2684219,10.8404268 65.9845917,11.4672021 C66.6990665,12.0948267 67.2381009,12.8286124 67.6033898,13.6702578 C67.9669838,14.5110539 68.1508996,15.4138481 68.1508996,16.3794897 L61.7740216,16.3794897 C61.7740216,15.5378443 61.5562042,14.8830425 61.1222646,14.414235 C60.6891726,13.9454274 60.0187698,13.7110237 59.1110563,13.7110237 C58.4652321,13.7110237 57.8999241,13.8596492 57.4193699,14.1543525 C56.9379682,14.4499051 56.6972673,14.9076719 56.6972673,15.5259543 C56.6972673,15.8979429 56.8091424,16.2036869 57.0371301,16.4431864 C57.2651179,16.6835352 57.5982005,16.9009532 58.0406155,17.0937418 C58.4804878,17.2856811 59.0246074,17.4844147 59.6729742,17.6899427 C60.3196459,17.8954706 61.062937,18.1315729 61.8994572,18.3974004 C62.8071707,18.6453928 63.6530139,18.9231103 64.4352918,19.2263065 C65.2201122,19.5295027 65.9117034,19.8997927 66.5100655,20.3337793 C67.109275,20.7686153 67.5822014,21.3138589 67.9330822,21.96951 C68.2831155,22.6260104 68.460251,23.4438757 68.460251,24.4239552 C68.460251,25.6367399 68.2195502,26.6609825 67.7381484,27.4949843 C67.2567467,28.3289861 66.5914291,29.0084173 65.7447384,29.5315793 C64.8988952,30.0564399 63.9199885,30.4309764 62.8063232,30.6594351 C61.6909628,30.8870446 60.5010191,31 59.2356444,31 C56.3319783,31 54.043625,30.362184 52.3722795,29.0874012 C50.7000865,27.8117691 49.8661088,25.9883456 49.8661088,23.6171307" id="Fill-4"></path>
                        <path d="M76.5532128,18.0746706 L85.0012316,18.0746706 C85.0012316,16.7514783 84.6165053,15.7068528 83.8487326,14.9416434 C83.08096,14.176434 82.0821836,13.7934047 80.8582835,13.7934047 C79.607503,13.7934047 78.576806,14.1628454 77.7670327,14.9000283 C76.9572594,15.6380604 76.5532128,16.6962745 76.5532128,18.0746706 M70.1506276,20.2259196 C70.1506276,18.7226781 70.3799514,17.3230498 70.8377589,16.0270348 C71.2955664,14.7310198 71.9801777,13.5980682 72.8899126,12.6256323 C73.7988075,11.6531964 74.921066,10.8845898 76.2533279,10.3198127 C77.5864298,9.75418617 79.1345752,9.47222222 80.8994442,9.47222222 C82.4937904,9.47222222 83.9226539,9.72700892 85.1910747,10.2365823 C86.4578155,10.747005 87.5439533,11.4255869 88.4503282,12.2740267 C89.3558631,13.1216171 90.0547546,14.1110388 90.5444826,15.2414425 C91.0342107,16.3718461 91.2803347,17.5583029 91.2803347,18.7991141 C91.2803347,19.2254572 91.2727746,19.6772789 91.2601744,20.1528808 C91.2458942,20.6284826 91.1845732,21.1771233 91.0753714,21.7971043 L76.5532128,21.7971043 C76.5800932,22.3559365 76.6724948,22.8833449 76.8287373,23.3793297 C76.9849799,23.8744652 77.236984,24.3084519 77.5847497,24.6812898 C77.9308354,25.0532784 78.3827629,25.3454338 78.941372,25.5552082 C79.4983012,25.7666811 80.1929926,25.8711437 81.0220862,25.8711437 C82.1367845,25.8711437 82.9801584,25.6919437 83.5530478,25.3309959 C84.1234172,24.9717466 84.5182236,24.5318149 84.7357872,24.0103515 L91.0342107,24.0103515 C90.8981284,24.9751438 90.5722031,25.877938 90.0547546,26.7195834 C89.5373061,27.5603795 88.8535349,28.2984117 88.0009209,28.9319813 C87.1491469,29.5664002 86.1436503,30.0700285 84.9869513,30.4420171 C83.8277323,30.8140057 82.5206708,31 81.0632469,31 C79.2983779,31 77.7367922,30.738419 76.3759699,30.2144077 C75.0151475,29.6903963 73.8735688,28.9498163 72.9503936,27.990969 C72.0272184,27.032971 71.330007,25.8949238 70.8587592,24.5785258 C70.3866715,23.2621278 70.1506276,21.8106929 70.1506276,20.2259196" id="Fill-6"></path>
                        <path d="M93.8158996,30.1388889 L93.8158996,9.14312494 L100.11854,9.14312494 L100.11854,12.1849511 C100.576417,11.1925575 101.313633,10.3486735 102.33275,9.6541727 C103.351868,8.95879831 104.590527,8.61111111 106.04702,8.61111111 C107.835815,8.61111111 109.211154,8.97627002 110.174745,9.70746144 C111.138337,10.4377793 111.837111,11.334952 112.266798,12.3981061 C112.807537,11.2921463 113.63274,10.3844905 114.741554,9.67513876 C115.851222,8.96666058 117.169326,8.61111111 118.694158,8.61111111 C120.171153,8.61111111 121.385039,8.85309441 122.334963,9.33531384 C123.282323,9.81665968 124.028082,10.4587453 124.572238,11.2598236 C125.117248,12.0617755 125.478595,12.9764199 125.659695,14.003757 C125.84165,15.0328412 125.933054,16.0994896 125.933054,17.2054494 L125.933054,30.1388889 L119.630414,30.1388889 L119.630414,18.8224569 C119.630414,17.4037534 119.383536,16.2942993 118.89149,15.493221 C118.397734,14.6921427 117.599013,14.2911668 116.489345,14.2911668 C116.004132,14.2911668 115.546255,14.3767782 115.116569,14.5462538 C114.686882,14.7166031 114.31443,15.0040129 114.00263,15.4084831 C113.690829,15.8120798 113.452494,16.358071 113.285916,17.0464567 C113.120192,17.7339689 113.036475,18.5813472 113.036475,19.5877182 L113.036475,30.1388889 L106.733835,30.1388889 L106.733835,18.7586851 C106.733835,17.3408552 106.491229,16.2410105 106.006016,15.4608983 C105.519949,14.6816597 104.736604,14.2911668 103.655126,14.2911668 C103.141723,14.2911668 102.672741,14.3767782 102.249888,14.5462538 C101.827036,14.7166031 101.458855,15.0110015 101.147054,15.4294492 C100.835254,15.8478969 100.585813,16.4078654 100.398733,17.1093549 C100.210799,17.811718 100.11854,18.6879247 100.11854,19.7371014 L100.11854,30.1388889 L93.8158996,30.1388889 Z" id="Fill-8"></path>
                        <path d="M135.81859,19.9726976 C135.81859,20.69517 135.940645,21.385358 136.183049,22.0441342 C136.424599,22.7029104 136.760891,23.2691961 137.190219,23.743864 C137.619546,24.2185319 138.140202,24.6007093 138.749625,24.8912689 C139.358195,25.1818284 140.031633,25.3266719 140.765673,25.3266719 C141.471545,25.3266719 142.123645,25.1818284 142.719412,24.8912689 C143.314325,24.6007093 143.827299,24.2185319 144.25748,23.743864 C144.686808,23.2691961 145.022246,22.7064006 145.26465,22.0546048 C145.507907,21.4036816 145.628255,20.7091308 145.628255,19.9726976 C145.628255,19.2502252 145.507907,18.5705078 145.26465,17.9326728 C145.022246,17.2957104 144.686808,16.7285521 144.25748,16.232943 C143.827299,15.7373339 143.314325,15.3481761 142.719412,15.0645969 C142.123645,14.7810178 141.471545,14.6396645 140.765673,14.6396645 C140.031633,14.6396645 139.358195,14.7810178 138.749625,15.0645969 C138.140202,15.3481761 137.619546,15.7373339 137.190219,16.232943 C136.760891,16.7285521 136.424599,17.2957104 136.183049,17.9326728 C135.940645,18.5705078 135.81859,19.2502252 135.81859,19.9726976 L135.81859,19.9726976 Z M129.313808,30.4686163 L129.313808,0 L135.81859,0 L135.81859,12.494061 C136.067822,12.0263736 136.407528,11.5761371 136.836856,11.1442243 C137.266183,10.7123114 137.765501,10.3371144 138.333101,10.0186332 C138.901554,9.70015199 139.504149,9.44449448 140.141739,9.25340576 C140.779329,9.06231705 141.444232,8.96633641 142.136448,8.96633641 C143.60538,8.96633641 144.956524,9.24991556 146.189881,9.81620131 C147.423237,10.3833596 148.479912,11.1520772 149.359052,12.1214816 C150.239899,13.0917586 150.921873,14.2539968 151.40668,15.6064512 C151.891488,16.9589057 152.133891,18.4143211 152.133891,19.9726976 C152.133891,21.5450349 151.891488,23.0039406 151.40668,24.3494145 C150.921873,25.6948885 150.239899,26.8571268 149.359052,27.8343841 C148.479912,28.8116415 147.423237,29.5838494 146.189881,30.1501351 C144.956524,30.7164209 143.60538,31 142.136448,31 C141.457889,31 140.7964,30.9040194 140.151982,30.7129306 C139.507563,30.5218419 138.901554,30.2740374 138.333101,29.969517 C137.765501,29.6649966 137.269597,29.3037604 136.847098,28.8858084 C136.424599,28.4678563 136.082332,28.0106395 135.81859,27.5159029 L135.81859,30.4686163 L129.313808,30.4686163 Z" id="Fill-10"></path>
                        <polygon id="Fill-12" points="154.669456 30.1388889 161.430962 30.1388889 161.430962 0 154.669456 0"></polygon>
                        <path d="M170.368272,18.0746706 L178.817131,18.0746706 C178.817131,16.7514783 178.432405,15.7068528 177.662952,14.9416434 C176.89518,14.176434 175.898083,13.7934047 174.673343,13.7934047 C173.423403,13.7934047 172.391026,14.1628454 171.582092,14.9000283 C170.773159,15.6380604 170.368272,16.6962745 170.368272,18.0746706 M163.966527,20.2259196 C163.966527,18.7226781 164.195851,17.3230498 164.652818,16.0270348 C165.111466,14.7310198 165.796077,13.5980682 166.704972,12.6256323 C167.614707,11.6531964 168.736126,10.8845898 170.069227,10.3198127 C171.402329,9.75418617 172.950475,9.47222222 174.714504,9.47222222 C176.30969,9.47222222 177.738553,9.72700892 179.006134,10.2365823 C180.272875,10.747005 181.359853,11.4255869 182.265388,12.2740267 C183.170923,13.1216171 183.869814,14.1110388 184.359542,15.2414425 C184.85011,16.3718461 185.096234,17.5583029 185.096234,18.7991141 C185.096234,19.2254572 185.088674,19.6772789 185.076074,20.1528808 C185.061794,20.6284826 185.000473,21.1771233 184.891271,21.7971043 L170.368272,21.7971043 C170.395993,22.3559365 170.486714,22.8833449 170.643797,23.3793297 C170.800879,23.8744652 171.052044,24.3084519 171.399809,24.6812898 C171.745895,25.0532784 172.198662,25.3454338 172.756432,25.5552082 C173.314201,25.7666811 174.007212,25.8711437 174.836306,25.8711437 C175.952684,25.8711437 176.796058,25.6919437 177.367267,25.3309959 C177.939317,24.9717466 178.333283,24.5318149 178.550007,24.0103515 L184.85011,24.0103515 C184.714028,24.9751438 184.386423,25.877938 183.869814,26.7195834 C183.351526,27.5603795 182.667754,28.2984117 181.81682,28.9319813 C180.964206,29.5664002 179.95955,30.0700285 178.802011,30.4420171 C177.643632,30.8140057 176.33573,31 174.877466,31 C173.114277,31 171.551012,30.738419 170.191029,30.2144077 C168.830207,29.6903963 167.689468,28.9498163 166.766293,27.990969 C165.843118,27.032971 165.145907,25.8949238 164.672979,24.5785258 C164.202571,23.2621278 163.966527,21.8106929 163.966527,20.2259196" id="Fill-14"></path>
                        <path d="M187.631799,30.1388889 L187.631799,9.8221895 L193.974114,9.8221895 L193.974114,13.1156014 C194.446812,12.1553047 195.230759,11.3082824 196.325122,10.5736893 C197.419486,9.83994146 198.676131,9.47222222 200.095059,9.47222222 C200.837395,9.47222222 201.472375,9.58887798 202,9.8221895 L202,15.6887907 C201.553932,15.5788976 201.176939,15.5002818 200.87318,15.4520979 C200.569422,15.403914 200.195757,15.3802447 199.750521,15.3802447 C198.00703,15.3802447 196.608908,15.9018143 195.555323,16.9449535 C194.501738,17.9872473 193.974114,19.7438463 193.974114,22.2139053 L193.974114,30.1388889 L187.631799,30.1388889 Z" id="Fill-15"></path>
                        <path d="M10.2374172,21.0175573 L17.5079396,21.0175573 L13.9138614,8.61727617 L10.2374172,21.0175573 Z M0,30.1388889 L10.6964365,0 L17.0686538,0 L27.8912134,30.1388889 L20.3701608,30.1388889 L19.2213256,26.6286262 L8.56607218,26.6286262 L7.39578748,30.1388889 L0,30.1388889 Z" id="Fill-1"></path>
                    </g>
                    <g id="logo/symbol/colour">
                        <rect id="Rectangle" opacity="0.5" x="0" y="34.1818182" width="12.5454545" height="12.8181818"></rect>
                        <path d="M29.2727273,47 L16.7272727,47 L16.727,29.9089091 L0,29.9090909 L0,17.0909091 L29.2727273,17.0909091 L29.2727273,47 Z" id="Combined-Shape" opacity="0.7"></path>
                        <path d="M46,0 L46,12.8181818 L45.999,12.818 L46,47 L33.4545455,47 L33.454,12.818 L0,12.8181818 L0,0 L46,0 Z" id="Combined-Shape"></path>
                    </g>
                </g>
            </g>
        </g>
    </g>
</svg>